<svg width="106" height="38" viewBox="0 0 106 38" fill="none" xmlns="http://www.w3.org/2000/svg">
<path d="M7.992 3.736V30.76H20.952L20.136 37H0.119995V3.736H7.992Z" fill="#040404"/>
<path d="M35.1266 10.696C39.0306 10.696 42.0866 11.896 44.2946 14.296C46.5026 16.664 47.6066 19.992 47.6066 24.28C47.6066 27 47.0946 29.384 46.0706 31.432C45.0786 33.448 43.6386 35.016 41.7506 36.136C39.8946 37.256 37.6866 37.816 35.1266 37.816C31.2546 37.816 28.1986 36.632 25.9586 34.264C23.7506 31.864 22.6466 28.52 22.6466 24.232C22.6466 21.512 23.1426 19.144 24.1346 17.128C25.1586 15.08 26.5986 13.496 28.4546 12.376C30.3426 11.256 32.5666 10.696 35.1266 10.696ZM35.1266 16.264C33.5906 16.264 32.4386 16.92 31.6706 18.232C30.9026 19.512 30.5186 21.512 30.5186 24.232C30.5186 27.016 30.8866 29.048 31.6226 30.328C32.3906 31.608 33.5586 32.248 35.1266 32.248C36.6626 32.248 37.8146 31.608 38.5826 30.328C39.3506 29.016 39.7346 27 39.7346 24.28C39.7346 21.496 39.3506 19.464 38.5826 18.184C37.8466 16.904 36.6946 16.264 35.1266 16.264Z" fill="#040404"/>
<path d="M67.2859 10.696C70.3259 10.696 72.6619 11.896 74.2939 14.296C75.9259 16.664 76.7419 19.992 76.7419 24.28C76.7419 26.904 76.3259 29.24 75.4939 31.288C74.6939 33.336 73.5259 34.936 71.9899 36.088C70.4859 37.24 68.6939 37.816 66.6139 37.816C65.2379 37.816 63.9739 37.528 62.8219 36.952C61.7019 36.376 60.7419 35.576 59.9419 34.552L59.5579 37H52.8379V1.38399L60.4219 0.567993V14.104C61.1899 13.048 62.1659 12.216 63.3499 11.608C64.5659 11 65.8779 10.696 67.2859 10.696ZM64.4059 32.296C67.3819 32.296 68.8699 29.624 68.8699 24.28C68.8699 21.24 68.5179 19.144 67.8139 17.992C67.1099 16.84 66.0859 16.264 64.7419 16.264C63.0459 16.264 61.6059 17.256 60.4219 19.24V29.848C60.9019 30.616 61.4779 31.224 62.1499 31.672C62.8539 32.088 63.6059 32.296 64.4059 32.296Z" fill="#040404"/>
<path d="M93.2385 10.696C97.1425 10.696 100.199 11.896 102.407 14.296C104.615 16.664 105.718 19.992 105.718 24.28C105.718 27 105.207 29.384 104.183 31.432C103.191 33.448 101.75 35.016 99.8625 36.136C98.0065 37.256 95.7985 37.816 93.2385 37.816C89.3665 37.816 86.3105 36.632 84.0705 34.264C81.8625 31.864 80.7585 28.52 80.7585 24.232C80.7585 21.512 81.2545 19.144 82.2465 17.128C83.2705 15.08 84.7105 13.496 86.5665 12.376C88.4545 11.256 90.6785 10.696 93.2385 10.696ZM93.2385 16.264C91.7025 16.264 90.5505 16.92 89.7825 18.232C89.0145 19.512 88.6305 21.512 88.6305 24.232C88.6305 27.016 88.9985 29.048 89.7345 30.328C90.5025 31.608 91.6705 32.248 93.2385 32.248C94.7745 32.248 95.9265 31.608 96.6945 30.328C97.4625 29.016 97.8465 27 97.8465 24.28C97.8465 21.496 97.4625 19.464 96.6945 18.184C95.9585 16.904 94.8065 16.264 93.2385 16.264Z" fill="#040404"/>
</svg>
